<svg xmlns="http://www.w3.org/2000/svg" viewBox="0 0 542 90" class="iconLeft"><path d="M124.958 74.034h24.66c12.101 0 19.885-4.375 19.885-15.454 0-9.375-6.704-13.523-14.375-14.546v-.17c7.444-1.478 11.819-6.08 11.819-12.216 0-4.375-1.762-7.67-4.944-9.773-3.068-2.102-7.67-2.898-14.034-2.898h-23.011v2.33c6.989.454 7.16.625 7.16 5.057v40.284c0 4.432-.171 4.602-7.16 5.057zm15.057-8.92V45.795h5.682c9.886 0 15.284 4.944 15.284 13.353 0 9.545-6.534 12.102-13.353 12.102-6.363 0-7.613-1.193-7.613-6.136zm0-22.103V25.74c0-3.41.227-3.978 6.42-3.978 5.796 0 12.16 2.16 12.16 10.341 0 7.784-5 10.91-13.296 10.91zm36.988 11.534c0 12.898 6.25 20.455 19.091 20.455 12.784 0 19.091-7.557 19.091-20.455 0-12.897-6.307-20.454-19.09-20.454-12.842 0-19.092 7.557-19.092 20.454zm8.24 0c0-10.965 3.522-17.67 10.851-17.67 7.273 0 10.796 6.705 10.796 17.67 0 10.966-3.523 17.67-10.796 17.67-7.33 0-10.852-6.704-10.852-17.67zm35.795-16.477 3.01.398c2.103.34 2.558.739 2.558 3.58v21.022c0 9.148 5.397 11.932 11.307 11.932 6.76 0 12.272-4.602 14.545-5.739l.795 4.773h12.728v-2.33c-5.455-.397-5.966-.51-5.966-4.602v-32.5l-.568-.511-12.444 1.989v1.988l3.012.398c2.045.34 2.557.739 2.557 3.58v17.897c0 2.216-.284 3.977-.682 4.773-1.818 3.693-5.625 5.966-9.773 5.966-4.602 0-8.011-2.841-8.011-9.034V34.602l-.568-.511-12.5 1.989zm48.636.17h5.682V65.91c0 8.125 6.08 9.091 8.863 9.091 4.034 0 7.841-2.102 10.17-3.523l-.624-1.647c-1.932.795-3.693 1.022-5.682 1.022-2.67 0-5.227-1.932-5.227-7.954v-24.66h10.284v-3.181h-10.284v-10h-2.33l-4.83 10h-6.022zm28.636 22.5.796 10.455c2.84 2.5 7.67 3.807 12.386 3.807 9.489 0 14.886-5 14.886-11.761 0-7.046-4.318-10.228-12.5-12.728-3.238-1.08-8.522-2.727-8.522-7.159 0-4.147 3.182-6.477 7.159-6.477 5.682 0 8.352 4.375 8.92 9.261h2.33v-9.318c-2.67-1.932-6.705-2.727-10.284-2.727-8.58 0-14.489 4.09-14.489 11.648 0 6.59 5.398 9.545 12.046 11.534 3.58 1.08 8.58 2.897 8.58 8.352 0 4.034-3.183 6.59-7.387 6.59-6.478 0-10.057-4.715-11.648-11.476zm34.83 2.955c0 5.966 3.977 11.307 11.42 11.307 4.66 0 9.318-3.125 11.875-4.773 1.137 2.955 2.387 4.773 5.17 4.773 2.955 0 6.364-.91 9.376-2.386l-.455-1.932c-1.136.227-2.898.398-4.09.113-1.421-.34-2.785-1.875-2.785-6.875V44.66c0-4.603-1.023-10.57-13.011-10.57-8.977 0-16.08 4.717-16.08 9.092 0 2.557 2.955 3.75 4.432 3.75 1.705 0 2.16-.91 2.557-2.273 1.761-5.852 5-7.784 8.182-7.784 3.125 0 6.761 1.59 6.761 7.955v3.352c-1.989 2.045-9.659 4.034-15.966 6.023-5.738 1.76-7.386 5.738-7.386 9.488zm8.011-1.136c0-3.693 1.762-5.625 6.193-7.273 3.182-1.193 7.444-2.727 9.148-3.864v11.25c0 6.42-4.886 8.125-8.011 8.125-4.943 0-7.33-3.522-7.33-8.238zm33.58-7.614C374.73 68.24 381.265 75 393.197 75c5.568 0 13.011-2.955 15.284-11.477l-2.33-1.08c-2.443 5.568-5.625 8.41-11.477 8.41-9.432 0-11.648-9.887-11.648-17.33 0-11.875 4.66-16.648 10.17-16.648 3.637 0 5.967 2.614 7.557 6.932.455 1.25.966 2.045 2.444 2.045 1.59 0 4.716-1.022 4.716-4.034 0-3.636-5.285-7.727-13.864-7.727-14.489 0-19.318 10.284-19.318 20.852zm39.432 8.75C414.163 69.66 418.14 75 425.64 75c4.602 0 9.318-3.125 11.875-4.773 1.08 2.955 2.386 4.773 5.17 4.773 2.898 0 6.364-.91 9.375-2.386l-.511-1.932c-1.08.227-2.841.398-4.034.113-1.42-.34-2.784-1.875-2.784-6.875V44.66c0-4.603-1.023-10.57-13.068-10.57-8.978 0-16.023 4.717-16.023 9.092 0 2.557 2.898 3.75 4.432 3.75 1.647 0 2.159-.91 2.556-2.273 1.762-5.852 5-7.784 8.182-7.784 3.125 0 6.762 1.59 6.762 7.955v3.352c-1.989 2.045-9.716 4.034-15.966 6.023-5.739 1.76-7.443 5.738-7.443 9.488zm8.068-1.136c0-3.693 1.761-5.625 6.193-7.273 3.182-1.193 7.386-2.727 9.148-3.864v11.25c0 6.42-4.944 8.125-8.012 8.125-4.943 0-7.33-3.522-7.33-8.238zm33.58-7.216C455.81 67.102 461.89 75 472.4 75c4.318 0 8.068-1.932 12.33-5.398v3.864l.625.568h12.897v-2.33c-5.625-.397-5.965-.51-5.965-4.602v-51.59l-.569-.512-12.443 1.989v1.988l3.012.341c2.045.227 2.556.625 2.556 3.637v13.068c-2.272-1.193-5.17-1.932-8.863-1.932-6.534 0-11.364 2.102-14.716 5.511-3.41 3.58-5.455 8.807-5.455 15.739zm8.238-.966c0-10.34 3.75-17.5 11.875-17.5 3.75 0 6.761 1.761 8.182 5 .625 1.364.738 2.5.738 4.66V60.51c0 1.762-.113 3.125-.568 4.432-1.59 4.148-5.113 5.739-9.261 5.739-7.273 0-10.966-7.16-10.966-16.307zm39.318.17c0 12.898 6.25 20.455 19.091 20.455 12.784 0 19.09-7.557 19.09-20.455 0-12.897-6.306-20.454-19.09-20.454-12.84 0-19.09 7.557-19.09 20.454zm8.239 0c0-10.965 3.522-17.67 10.852-17.67s10.795 6.705 10.795 17.67c0 10.966-3.465 17.67-10.795 17.67s-10.852-6.704-10.852-17.67z" fill="#212420"/><defs><linearGradient gradientTransform="rotate(25)" id="a" x1="0%" y1="0%" x2="100%" y2="0%"><stop offset="0%" style="stop-color:#4f7e48;stop-opacity:1"/><stop offset="100%" style="stop-color:#cae6a5;stop-opacity:1"/></linearGradient></defs><path d="M81.2 13.5c-3.5-.6-11.3 1.6-15 4.3-3 2.1-12.2 4.2-16.2 4.9-1.9-.5-3.9-.8-6-.8-7.5 0-14.1 3.7-18.2 9.3l-1.1.3-.2.1C13.2 37.9 7.7 47.2 7.9 55.9c-.7 13.3 2.7 29.4 36 31 38.6 1.9 49.5-45 49.7-58.7.2-13.8-11-14.5-12.4-14.7zM50.4 32.3c.7 0 1.3.6 1.3 1.3 0 .7-.6 1.3-1.3 1.3-.7 0-1.3-.6-1.3-1.3 0-.7.6-1.3 1.3-1.3zm-2.5-4.8c.6 0 1.2.5 1.2 1.2 0 .6-.5 1.2-1.2 1.2-.6 0-1.2-.5-1.2-1.2.1-.7.6-1.2 1.2-1.2zm-2.4 3.7c.4 0 .7.3.7.7 0 .4-.3.7-.7.7-.4 0-.7-.3-.7-.7 0-.4.3-.7.7-.7zm.7 3.3c0 .3-.2.5-.5.5s-.5-.2-.5-.5.2-.5.5-.5c.2 0 .5.2.5.5zm-4-7c.6 0 1 .5 1 1 0 .6-.4 1-1 1s-1-.4-1-1c0-.5.5-1 1-1zm38 5.3c-.5 1.1-1.1 2.2-1.6 3.4-6.9 14.5-14.8 31-41.8 33.8-13.2 1.3-23.5-3.4-26.2-12-2.6-8.2 2.7-17.5 13.5-24-1.6 3.1-2.6 6.7-2.6 10.4 0 6.1 2.5 11.7 6.4 15.8 27.9-1.9 34.7-17.3 36.3-25.7-2.3-4.6-6.1-8.3-10.8-10.5 4.5-.9 11.6-3 14.1-4.9 3.2-2.4 10.3-4.3 13.4-3.8 1.4.3 2.4.9 2.9 1.9.9 1.9 1.1 6.1-3.6 15.6z" transform="matrix(1.22356 0 0 1.22356 -9.228 -15.996)" fill="url(#a)"/></svg>