<svg height="512" viewBox="0 0 128 128" width="512" xmlns="http://www.w3.org/2000/svg"><g><path d="m92.382 45.859v-.259a20.1 20.1 0 0 0 -20.1-20.1 20.1 20.1 0 0 0 -20.1 20.1v.265a26.282 26.282 0 0 1 -3.891 13.77 28.147 28.147 0 1 0 48.168.293 27.464 27.464 0 0 1 -4.077-14.069z" fill="#20cb79"/><path d="m83.7 56.177.092-.232a19.7 19.7 0 0 0 -11.092-25.545 19.7 19.7 0 0 0 -25.552 11.089l-.1.242a25.746 25.746 0 0 1 -8.5 11.15 27.576 27.576 0 1 0 43.8 17.585 26.9 26.9 0 0 1 1.352-14.289z" fill="#9ee587"/><path d="m55.126 95.5a20.58 20.58 0 0 1 -12.369-37.02 32.726 32.726 0 0 0 10.807-14.18l.095-.239a12.7 12.7 0 1 1 23.62 9.316l-.091.23a33.995 33.995 0 0 0 -1.747 18 20.584 20.584 0 0 1 -20.314 23.893z" fill="#d7fb85"/><circle cx="54.866" cy="75.595" fill="#b1705d" r="13.031"/><path d="m102.5 104.25h-77a1.75 1.75 0 0 1 0-3.5h77a1.75 1.75 0 0 1 0 3.5z" fill="#19a966"/><path d="m48.77 74.94a1.752 1.752 0 0 1 -1.628-2.393 8.316 8.316 0 0 1 10.772-4.677 1.75 1.75 0 0 1 -1.285 3.256 4.81 4.81 0 0 0 -6.229 2.706 1.751 1.751 0 0 1 -1.63 1.108z" fill="#e2ebf0"/></g></svg>